<svg width="121" height="161" viewBox="0 0 121 161" fill="none" xmlns="http://www.w3.org/2000/svg">
<path d="M17.87 52.1115L8.88461 45.1944L20.0861 45.0321L20.7106 43.0645L10.3956 35.7214C8.80403 34.5855 7.65568 33.5307 7.07143 32.3339L7.03113 32.3136L5.84249 36.1271L5.88278 36.1474C7.07143 35.2346 8.72344 35.2752 10.8388 36.7762L16.8223 41.0157L8.98535 41.0969C7.01099 41.0969 5.62088 40.5492 4.8956 39.3727L4.85531 39.3524L2.82051 45.8435L2.86081 45.8638C4.04945 45.2755 5.62088 45.1944 7.29304 45.1944H7.93773L14.2033 49.9816L6.20513 49.9613C4.23077 49.9613 2.82051 49.4542 2.09524 48.2574L2.0348 48.2777L0 54.7688L0.040293 54.7891C1.22894 54.2008 2.78022 54.1197 4.47253 54.1197H17.2454L17.87 52.1115Z" fill="black"/>
<path d="M14.3443 30.9951L20.0256 34.8492C21.8187 36.0662 22.4029 36.7559 23.37 38.1961L23.4103 38.2164L26.6337 33.4292L26.5934 33.4089C24.9414 33.0641 23.9945 32.7395 22.2619 31.563L16.5806 27.6886C14.848 26.5121 14.2033 25.7413 13.2564 24.3214L13.2161 24.3011L9.99268 29.0883L10.033 29.1086C11.685 29.4737 12.5513 29.7577 14.3443 30.9951Z" fill="black"/>
<path d="M21.0329 21.9075L25.6062 27.0396C27.0366 28.6421 27.4596 29.494 28.0237 31.0965L28.0439 31.1371L36.5659 23.4695L34.0475 18.8851L33.8259 19.0068C34.1281 21.015 34.2289 24.646 33.1208 25.7211L31.3479 27.5264L23.9944 19.2502C22.5842 17.668 22.1611 16.8161 21.5769 15.1933L21.5567 15.1527L17.2856 19.0068L17.3058 19.0474C18.8369 19.7979 19.6025 20.2848 21.0329 21.9075Z" fill="black"/>
<path d="M34.4908 10.7104L37.13 17.5261C37.8754 19.4531 37.9762 20.3659 37.9157 22.009L37.9359 22.0496L44.0201 19.656C49.7417 17.4043 51.9578 13.3677 50.0641 8.45878C48.1703 3.52959 43.6575 2.19079 38.1172 4.38155C35.3773 5.45664 34.2289 6.00433 32.0732 6.85628L32.0934 6.89685C33.2216 8.07337 33.7454 8.74277 34.4908 10.7104ZM38.2381 4.90895C41.945 3.38759 44.2417 5.35521 46.1758 10.3047C47.8681 14.6862 47.7674 17.5666 43.8791 19.088C43.7784 19.1286 42.9322 19.4328 42.2271 19.6357L36.7875 5.57835C37.3516 5.31464 38.0769 4.9698 38.2381 4.90895Z" fill="black"/>
<path d="M63.6429 16.8363C66.8462 17.1406 69.8682 16.1061 70.2107 12.4751C70.5129 9.29041 68.3975 7.7082 66.3224 6.36941C64.3682 5.17261 62.4744 4.17866 62.6356 2.3936C62.7565 1.09538 63.8041 0.344842 65.1338 0.46655C66.7858 0.628828 68.1759 2.17047 69.6264 5.23347L69.8682 5.1929L69.6869 0.933099C68.6795 0.50712 67.4909 0.182564 66.262 0.0608553C63.1392 -0.243416 60.0971 0.709967 59.7748 4.09752C59.4927 7.05909 61.6283 8.51959 63.7638 9.87867C65.6576 11.0755 67.4305 12.11 67.2491 14.0776C67.1081 15.4975 66.0605 16.5524 64.2876 16.3901C62.3132 16.1872 60.7821 14.5036 59.0092 10.7509L58.7876 10.7915L58.9286 15.3556C60.0971 16.0452 61.7894 16.6538 63.6429 16.8363Z" fill="black"/>
<path d="M78.4103 20.9947C82.7418 23.1043 87.718 21.4816 89.7931 17.1406C91.8682 12.82 90.0953 7.82992 85.7638 5.72031C81.4121 3.59041 76.4359 5.29433 74.3609 9.61498C72.2656 13.9559 74.0587 18.8851 78.4103 20.9947ZM78.1887 11.5015C80.1832 7.34309 82.7418 4.84807 85.5422 6.20714C88.3426 7.56622 87.9396 11.1363 85.9451 15.2947C83.9305 19.4531 81.392 21.9075 78.6319 20.5687C75.8718 19.1894 76.1942 15.6598 78.1887 11.5015Z" fill="black"/>
<path d="M91.5458 30.6096C94.8498 33.9769 97.6099 32.8004 100.289 30.1431L103.936 26.5121C105.507 24.9502 106.595 24.6865 108.65 24.4431V24.3822L105.608 21.2989L105.568 21.3395C105.407 23.4491 105.044 24.4837 103.473 26.0659L99.7051 29.7983C97.5293 31.9687 95.0311 33.0438 92.9157 30.8936C91.3443 29.2911 91.2234 27.2018 93.9835 24.4431L98.0934 20.3456C99.6245 18.8242 100.531 18.2968 102.022 17.7288L102.062 17.6883L97.9926 13.5502L97.9524 13.5705C97.2674 15.1527 96.8644 15.9438 95.3132 17.4854L91.3443 21.4409C88.1813 24.5851 88.8461 27.8509 91.5458 30.6096Z" fill="black"/>
<path d="M101.921 35.2955C100.027 36.2894 99.1008 36.4923 97.4085 36.6546L97.3682 36.6749L102.647 46.8781L107.683 45.5393L107.623 45.2959C105.628 45.093 102.103 44.3019 101.317 42.9631L100.007 40.7927L109.799 35.6606C111.672 34.6667 112.599 34.4638 114.311 34.3015L114.352 34.2812L111.712 29.1695L111.672 29.1898C110.564 30.5083 109.899 31.1168 107.985 32.1311L101.921 35.2955Z" fill="black"/>
<path d="M120.758 51.6246C120.134 48.5211 118.341 45.8841 115.017 46.5535C112.115 47.1417 111.35 49.6367 110.685 52.0912C110.101 54.2617 109.637 56.2698 107.703 56.6755C106.313 56.9595 105.004 56.2496 104.641 54.5051C104.238 52.5375 105.407 50.5901 108.449 47.7705L108.348 47.5677L104.037 49.0282C103.734 50.3467 103.654 52.1521 104.017 53.9777C104.661 57.1624 106.535 59.7588 110.081 59.0286C113.203 58.3997 114.07 55.9047 114.734 53.5111C115.299 51.2798 115.681 49.1702 117.434 48.8051C118.703 48.5414 119.731 49.3325 119.993 50.651C120.315 52.294 119.267 54.0588 116.769 56.3713L116.89 56.5944L120.879 55.1745C121.04 54.0791 121 52.8417 120.758 51.6246Z" fill="black"/>
<path d="M6.74902 86.8999L16.1977 87.1433L16.238 85.9668C15.4322 85.6017 14.5659 84.6077 14.5659 83.1878L13.4377 83.1675C13.3974 84.3643 13.8809 85.3582 14.3443 85.7639L6.78932 85.5611L6.74902 86.8999Z" fill="black"/>
<path d="M11.1612 99.0098C14.2437 99.091 16.077 97.9347 16.1576 95.4803C16.218 93.0055 14.4451 91.7682 11.3627 91.687C8.28029 91.6059 6.44696 92.7621 6.36637 95.2166C6.28579 97.6913 8.07883 98.9287 11.1612 99.0098ZM11.3224 93.0055C13.5587 93.0664 15.11 93.6344 15.0495 95.4397C15.0092 97.2653 13.4378 97.7319 11.2015 97.671C8.96528 97.6102 7.41399 97.0625 7.47443 95.2369C7.51473 93.4315 9.08616 92.9447 11.3224 93.0055Z" fill="black"/>
<path d="M15.8554 107.022C15.9159 104.548 14.143 103.31 11.0606 103.229C7.97816 103.148 6.14483 104.304 6.06424 106.759C6.0038 109.233 7.77669 110.471 10.8591 110.552C13.9415 110.633 15.795 109.497 15.8554 107.022ZM7.15215 106.799C7.19245 104.994 8.76387 104.507 11.0001 104.568C13.2364 104.629 14.7877 105.197 14.7272 107.002C14.687 108.828 13.1155 109.294 10.8793 109.233C8.66314 109.172 7.11186 108.625 7.15215 106.799Z" fill="black"/>
<path d="M10.8993 121.932C8.90479 122.5 8.60259 123.818 8.90479 124.913C9.20699 126.009 10.1539 126.982 12.1484 126.435C14.1429 125.867 14.4451 124.548 14.1227 123.433C13.8407 122.358 12.8938 121.384 10.8993 121.932ZM11.9066 125.502C10.7986 125.806 10.033 125.603 9.77109 124.711C9.50919 123.798 10.0531 123.23 11.1813 122.905C12.2894 122.601 13.055 122.804 13.3169 123.696C13.5586 124.589 13.0147 125.177 11.9066 125.502Z" fill="black"/>
<path d="M17.9908 121.526L7.25269 118.321L7.55488 119.416L18.293 122.621L17.9908 121.526Z" fill="black"/>
<path d="M13.3773 114.507C11.3828 115.075 11.0806 116.394 11.4029 117.489C11.7051 118.585 12.652 119.558 14.6465 119.011C16.641 118.443 16.9432 117.124 16.641 116.008C16.3187 114.913 15.3718 113.939 13.3773 114.507ZM15.7747 116.252C16.0366 117.165 15.4927 117.733 14.3645 118.057C13.2564 118.362 12.4909 118.159 12.229 117.266C11.967 116.353 12.511 115.785 13.6392 115.461C14.7473 115.136 15.5128 115.339 15.7747 116.252Z" fill="black"/>
<path d="M25.1227 134.65L23.2894 132.317L15.8755 138.22L16.7015 139.255L19.4616 137.064L20.4689 138.342C21.9799 140.269 23.5916 140.735 25.163 139.498C26.7345 138.261 26.6337 136.577 25.1227 134.65ZM24.3169 138.443C23.3498 139.214 22.4835 139.113 21.3352 137.632L20.348 136.374L23.2491 134.062L24.2363 135.319C25.3846 136.8 25.2839 137.672 24.3169 138.443Z" fill="black"/>
<path d="M34.7123 143.819L31.1061 148.505C29.9376 150.006 28.9303 150.087 27.6812 149.113C26.4321 148.119 26.2508 147.125 27.4193 145.624L31.0457 140.938L29.998 140.127L26.2508 144.995C24.7398 146.943 25.2032 148.647 26.9962 150.046C28.7892 151.446 30.542 151.466 32.0328 149.519L35.7801 144.65L34.7123 143.819Z" fill="black"/>
<path d="M42.1868 147.937L39.467 146.76L35.7197 155.523L36.9285 156.05L38.3186 152.785L39.9706 153.495L40.978 157.795L42.4688 158.444L41.3406 153.839C42.7509 154.103 43.8992 153.616 44.5036 152.196C45.3095 150.35 44.423 148.91 42.1868 147.937ZM43.2747 151.649C42.7912 152.785 41.945 153.109 40.2527 152.359L38.782 151.73L40.2527 148.302L41.7234 148.931C43.4358 149.701 43.7582 150.513 43.2747 151.649Z" fill="black"/>
<path d="M48.1301 159.945L54.3554 161L54.5367 159.884L49.621 159.053L50.1448 155.909L54.2144 156.598L54.3957 155.483L50.3261 154.793L50.8096 151.872L55.7254 152.704L55.9067 151.608L49.6814 150.553L48.1301 159.945Z" fill="black"/>
<path d="M72.4872 154.691L71.3792 154.894C71.5605 155.827 71.5202 156.659 71.2986 157.349L68.7601 155.28C69.8481 154.306 70.533 153.495 70.3316 152.379C70.0898 151.101 68.9213 150.553 67.6521 150.797C66.0605 151.101 65.4158 152.176 65.6374 153.332C65.7986 154.164 66.5037 154.813 67.229 155.401C66.1008 156.395 65.1338 157.41 65.3755 158.769C65.6374 160.249 67.0275 160.959 68.8609 160.615C70.0898 160.391 70.9763 159.763 71.5807 158.992L72.5275 159.763L73.9781 159.499L72.1448 158.018C72.588 156.923 72.6686 155.665 72.4872 154.691ZM66.7858 153.089C66.6448 152.359 67.0275 151.892 67.8133 151.73C68.4982 151.608 69.0422 151.953 69.1631 152.643C69.284 153.271 69.1228 153.718 68.0147 154.691C67.3499 154.144 66.8865 153.718 66.7858 153.089ZM68.8004 159.58C67.5111 159.823 66.7455 159.357 66.5843 158.444C66.403 157.491 67.0074 156.842 67.9543 155.99L70.7949 158.363C70.2913 159.012 69.5862 159.438 68.8004 159.58Z" fill="black"/>
<path d="M85.2198 143.717L89.2893 150.33L81.4322 146.091L80.0623 146.943L85.0384 155.036L86.1062 154.367L82.0366 147.754L89.8937 151.994L91.2637 151.142L86.2875 143.048L85.2198 143.717Z" fill="black"/>
<path d="M91.4248 138.342L95.8168 147.511L96.7636 146.517L95.6959 144.427L98.597 141.364L100.733 142.338L101.7 141.303L92.3918 137.328L91.4248 138.342ZM97.5896 140.918L95.1922 143.433L92.8552 138.788L97.5896 140.918Z" fill="black"/>
<path d="M100.511 127.834L99.5239 127.226L95.7766 133.413L96.7436 134.001L98.2748 131.486L105.386 135.847L106.071 134.711L98.9799 130.35L100.511 127.834Z" fill="black"/>
<path d="M108.912 119.437L103.11 117.51L102.707 118.767L108.308 120.633C110.101 121.222 110.524 122.155 110.02 123.676C109.516 125.197 108.65 125.705 106.837 125.096L101.236 123.25L100.833 124.508L106.635 126.435C108.972 127.206 110.403 126.212 111.108 124.041C111.793 121.871 111.229 120.207 108.912 119.437Z" fill="black"/>
<path d="M107.24 106.718C105.245 106.576 104.198 107.895 104.037 110.349L103.835 113.311L113.264 113.939L113.344 112.621L109.839 112.398L109.96 110.592L113.647 108.199L113.747 106.576L109.819 109.172C109.597 107.753 108.771 106.819 107.24 106.718ZM108.731 112.317L105.044 112.073L105.145 110.471C105.266 108.584 105.91 108.016 107.159 108.097C108.368 108.178 108.952 108.868 108.832 110.714L108.731 112.317Z" fill="black"/>
<path d="M104.339 99.6386L113.707 103.472L113.747 102.113L111.571 101.282L111.672 97.0625L113.888 96.3322L113.929 94.9123L104.379 98.239L104.339 99.6386ZM110.584 97.387L110.504 100.856L105.689 98.9895L110.584 97.387Z" fill="black"/>
<path d="M112.921 89.3949L104.601 89.1717L104.561 90.5105L114.009 90.7539L114.17 84.8714L113.042 84.8511L112.921 89.3949Z" fill="black"/>
<path d="M63.8442 74.9319C64.0054 73.8973 64.1464 72.9845 64.2068 72.5991C61.0841 71.1589 58.2032 69.9621 56.4102 69.2724C56.7325 70.3475 58.1025 72.6194 63.8442 74.9319Z" fill="black"/>
<path d="M67.4908 55.215C67.0677 56.1279 67.5311 58.6635 66.282 59.7385C65.0329 60.8136 64.2271 60.9353 64.2271 60.9353L65.5366 72.092C68.5384 73.4916 71.6611 75.0535 74.2802 76.5749C69.6263 53.004 69.6666 53.0243 69.6666 53.0243C69.6666 53.0243 67.9139 54.3022 67.4908 55.215Z" fill="black"/>
<path d="M59.6338 100.247C60.077 100.024 60.3792 99.6995 60.5001 99.5169C60.2382 98.8475 59.4726 96.8799 58.7272 94.8514L57.2363 95.8454C57.8609 98.0362 58.9286 100.247 59.6338 100.247Z" fill="black"/>
<path d="M64.2673 95.3383C63.9853 94.3849 63.5018 92.7621 62.9578 90.9365C62.575 91.1799 62.0714 91.4841 61.749 91.687C61.9102 92.9447 62.6758 95.4803 63.26 95.9265C63.6226 95.7642 63.9651 95.602 64.2673 95.3383Z" fill="black"/>
<path d="M55.6247 98.8881C55.6851 99.1112 55.7053 99.3344 55.7053 99.5575C56.6522 100.125 57.5185 100.43 58.2639 100.491C57.0954 99.1315 56.35 96.4336 56.1888 95.744C56.1283 95.5411 56.2291 95.318 56.3903 95.1963L58.3646 93.8575C57.8811 92.5187 57.4379 91.261 57.176 90.3888C56.3298 87.5489 51.5752 74.019 50.7089 72.4774C50.2053 71.5849 49.3994 70.9966 48.654 70.956C48.0899 70.9357 47.5661 71.2197 47.1229 71.808C46.3371 72.9034 45.9342 76.1286 46.2566 78.7657C46.5185 78.8671 46.7804 78.9888 47.0423 79.1308C48.8756 80.1653 51.3939 82.7617 53.0258 89.192C54.2749 94.0603 54.9196 96.3728 55.262 97.6304C55.4635 98.239 55.5642 98.6041 55.6247 98.8881Z" fill="black"/>
<path d="M53.3882 94.5269L51.6758 95.9468C52.119 97.813 53.0659 100.47 53.8315 100.876C53.8718 100.896 53.8919 100.896 53.912 100.896C54.0934 100.795 54.2545 100.693 54.3754 100.531C54.6776 100.166 54.7784 99.6589 54.6373 99.1112C54.5769 98.8272 54.4761 98.4824 54.315 97.8941C54.1337 97.2044 53.8315 96.1699 53.3882 94.5269Z" fill="black"/>
<path d="M49.7015 70.1852C50.447 70.5098 51.1118 71.1386 51.5953 71.9703C52.5825 73.6945 57.4177 87.5895 58.1631 90.1048C58.5862 91.5248 59.5532 94.1415 60.3389 96.2308C60.5807 96.2714 61.3463 96.3728 62.2327 96.2105C61.2254 94.7703 60.7419 91.7885 60.7217 91.4436C60.7217 91.2611 60.8023 91.0988 60.9433 90.9974C61.2455 90.7945 62.1521 90.2265 62.6558 89.9223C61.4268 85.7842 60.0166 81.0984 59.9964 81.0173C59.9561 80.9158 59.9763 80.8144 60.0166 80.713C56.7931 78.36 53.9323 74.587 55.3426 68.4204V68.4002C55.3426 68.3799 55.3627 68.3596 55.3627 68.3393C55.3829 68.2987 55.403 68.2582 55.4232 68.2176C55.4433 68.1973 55.4635 68.177 55.4836 68.1567C55.5038 68.1162 55.544 68.0959 55.5843 68.0756L55.6045 68.0553C55.6246 68.035 55.6448 68.035 55.6649 68.035C55.7052 68.0147 55.7254 68.0147 55.7657 67.9945C55.806 67.9945 55.8261 67.9945 55.8664 67.9945C55.8865 67.9945 55.9067 67.9945 55.947 67.9945C55.9671 67.9945 55.9671 68.0147 55.9873 68.0147C56.0074 68.0147 56.0074 68.0147 56.0276 68.0147C56.3902 68.1567 56.8334 68.319 57.2968 68.5016C57.2162 68.2582 57.1558 68.0553 57.0752 67.8322C56.5715 66.4731 55.9671 65.6009 55.2016 65.1546C55.1613 65.1343 55.121 65.1343 55.0807 65.114C54.3151 64.7286 53.3682 64.7083 52.1594 65.0735C49.4799 65.8646 49.6411 69.3738 49.7015 70.1852Z" fill="black"/>
<path d="M74.6025 77.9137C71.8626 76.2707 68.4175 74.5465 65.1538 73.0251C65.0531 73.5931 64.8919 74.6276 64.7307 75.7027C64.7106 75.8447 64.6099 75.9867 64.489 76.0678C64.4084 76.1084 64.3278 76.1287 64.2271 76.1287C64.1666 76.1287 64.1062 76.1084 64.0458 76.0881C59.0696 74.1813 56.9139 72.1934 55.967 70.7126C55.4633 78.1774 62.2729 81.1593 65.7179 82.6401L66.2216 82.8632C66.4432 82.9646 66.5641 83.208 66.5036 83.4515C64.9523 89.1312 68.1959 90.9163 68.2362 90.9365C68.478 91.0582 68.5787 91.3625 68.4578 91.6262C68.3773 91.8088 68.1959 91.8899 68.0146 91.8899C67.934 91.8899 67.8534 91.8696 67.7729 91.8291C67.6117 91.7479 63.945 89.7397 65.4359 83.6137L65.315 83.5732C64.2271 83.1066 62.7161 82.4372 61.1648 81.4838C61.9707 84.1614 64.63 93.0056 65.2948 95.3383C65.3553 95.5209 65.2948 95.7034 65.174 95.8454C64.6501 96.3728 64.0458 96.7177 63.4414 96.9408C63.4212 96.9408 63.4011 96.9611 63.4011 96.9611C62.6355 97.2451 61.8699 97.3262 61.2655 97.3262C61.0641 97.3262 60.8827 97.3262 60.7216 97.3059C61.1849 98.5027 61.5073 99.375 61.5274 99.3953C61.5879 99.517 61.5677 99.6793 61.5073 99.801C61.4871 99.8415 60.9432 100.977 59.5531 101.383C59.2307 101.485 58.8681 101.525 58.5055 101.525C57.5989 101.525 56.5714 101.201 55.4835 100.592C55.4029 100.815 55.282 101.018 55.141 101.201C54.9395 101.464 54.6776 101.647 54.3754 101.809C54.3553 101.829 54.3351 101.85 54.2948 101.87H54.2747C53.8718 102.073 53.4285 102.174 52.945 102.154C51.7161 102.113 48.674 101.363 47.2033 95.176C45.934 89.902 45.3699 89.0095 44.6044 88.1981C44.423 87.9952 44.423 87.6707 44.6245 87.4881C44.826 87.3056 45.1483 87.3056 45.3296 87.5084C46.2967 88.5429 46.9011 89.618 48.1904 94.9529C49.3791 99.8821 51.4743 100.937 52.6227 101.119C51.4139 99.4764 50.6282 95.9671 50.6282 95.9063C50.5879 95.7237 50.6483 95.5209 50.7893 95.3992L53.1062 93.4721C52.8241 92.3768 52.4817 91.0582 52.0586 89.476C50.8498 84.7294 48.8754 81.3621 46.5384 80.0233C45.1886 79.2525 44.1007 79.3337 43.4157 79.5365C43.0732 79.6379 42.7509 79.8002 42.489 80.0233C42.0659 80.3479 41.7436 80.8347 41.4817 81.4636C41.3608 81.7475 41.26 82.0721 41.1795 82.4372C41.1593 82.4981 41.1392 82.5387 41.1392 82.5995C40.8571 83.9383 40.7967 85.7234 40.9377 88.0358C41.0586 90.1657 41.5824 92.9244 42.4487 96.3323C43.5567 100.775 45.2289 106.292 47.3443 112.945C51.2124 125.096 59.3718 123.453 59.4523 123.433C59.7143 123.372 59.9963 123.554 60.0567 123.818C60.1172 124.082 59.9359 124.366 59.674 124.427C59.6538 124.427 59.1904 124.528 58.445 124.528C57.4176 124.528 55.826 124.345 54.0732 123.514C54.0732 124.366 53.9725 130.857 52.6831 136.172C57.3571 137.044 73.2124 130.451 73.2124 130.451L75.771 110.613C75.771 110.633 87.5567 95.1963 74.6025 77.9137ZM67.4102 99.6793C67.1886 99.7807 62.1117 102.397 63.7637 109.477C63.8241 109.74 63.663 110.024 63.3809 110.085C63.3406 110.085 63.3003 110.106 63.26 110.106C63.0384 110.106 62.8168 109.943 62.7765 109.72C60.923 101.829 66.9066 98.807 66.967 98.7664C67.2088 98.6447 67.511 98.7462 67.6318 98.9896C67.7729 99.2533 67.6721 99.5575 67.4102 99.6793Z" fill="black"/>
<path d="M62.7765 35.2752C61.2051 36.188 56.7527 38.5411 59.9761 46.8375C60.8021 48.9674 61.5879 50.5496 61.6282 53.0041C61.6684 55.4585 60.6208 59.7792 64.0054 59.6778C67.3901 59.5763 65.4157 55.6614 66.6849 53.9169C67.9542 52.1927 68.3571 52.5984 68.6996 49.3325C69.0622 46.0667 70.6135 47.8517 70.271 43.3688C69.9084 38.8859 69.5659 37.608 68.3974 35.9852C67.2289 34.3624 64.3479 34.3624 62.7765 35.2752Z" fill="black"/>
</svg>
